#!OML:ASF E:\emotionWalksFemale\Project 1\Capture day 1\Session 1\Female1.ASF
:FULLY-SPECIFIED
:DEGREES
1538
root 8.52552 14.9133 23.4154 175.703 -192.823 -176.532
lowerback 3.40066 0.705993 -7.79813
upperback -4.06489 0.281976 -3.33918
thorax -6.20556 0.413456 0.843434
lowerneck -3.13522 -5.8888 -14.1385
upperneck 26.3761 -8.77346 8.94655
head 9.88179 -4.62502 4.70213
rclavicle -2.62396e-014 3.10104e-014
rhumerus -51.7486 -2.49802 -25.0732
rradius 33.3574
rwrist 19.8491
rhand 2.22023 298.943
rfingers 7.12502
rthumb 27.7152 -809.034
lclavicle -2.62396e-014 3.10104e-014
lhumerus -11.7557 -8.9182 63.4417
lradius 42.0472
lwrist -14.5024
lhand -2.22456 -39.3917
lfingers 7.12502
lthumb 23.458 -10.8017
rfemur -26.122 12.6233 14.8331
rtibia 29.2364
rfoot -17.3918 -29.5231
rtoes -1.27084
lfemur 23.2799 -19.1277 -34.9709
ltibia 12.7568
lfoot -21.4171 7.89381
ltoes -3.97502
1539
root 8.50374 14.8867 23.6211 175.883 -193.084 -175.978
lowerback 3.20948 0.631329 -8.31034
upperback -4.00384 0.163798 -3.6194
thorax -6.02948 0.365165 0.846451
lowerneck -2.82058 -5.85046 -13.8972
upperneck 26.1351 -8.76542 8.90946
head 9.71755 -4.60805 4.65257
rclavicle -1.59028e-014 -3.97569e-015
rhumerus -52.7626 -0.464326 -25.2673
rradius 34.0786
rwrist 18.2753
rhand 2.47484 299.17
rfingers 7.12502
rthumb 27.9586 -808.768
lclavicle -1.59028e-014 -3.97569e-015
lhumerus -12.2511 -8.54185 62.5042
lradius 42.0662
lwrist -14.5011
lhand -2.24309 -40.0192
lfingers 7.12502
lthumb 23.4402 -11.427
rfemur -25.2562 12.0573 14.6073
rtibia 29.314
rfoot -16.8082 -30.0789
rtoes -3.31885
lfemur 24.1188 -18.5481 -35.2912
ltibia 12.3945
lfoot -20.5589 7.83015
ltoes -8.92861
1540
root 8.48274 14.8732 23.8246 176.156 -193.307 -175.699
lowerback 3.03935 0.620881 -8.40669
upperback -4.12663 0.140249 -3.9335
thorax -6.06243 0.354391 0.571517
lowerneck -2.28187 -5.86549 -13.5439
upperneck 25.958 -8.89069 8.92546
head 9.54839 -4.64534 4.59647
rclavicle -3.97569e-015 2.38542e-014
rhumerus -54.2944 1.80083 -25.8398
rradius 34.8852
rwrist 17.2896
rhand 2.93291 299.506
rfingers 7.12502
rthumb 28.3964 -808.36
lclavicle -3.97569e-015 2.38542e-014
lhumerus -13.211 -8.22828 61.6955
lradius 42.2899
lwrist -14.505
lhand -2.73261 -40.4746
lfingers 7.12502
lthumb 22.9706 -11.8232
rfemur -24.4729 11.4506 14.69
rtibia 29.0867
rfoot -15.5224 -31.1362
rtoes -6.10959
lfemur 24.5629 -17.9804 -35.2036
ltibia 12.3826
lfoot -19.6403 7.89828
ltoes -15.4784
1541
root 8.46129 14.8923 24.0279 176.412 -193.338 -175.948
lowerback 3.09789 0.668366 -7.91088
upperback -4.42722 0.19527 -4.08867
thorax -6.41362 0.371104 0.122608
lowerneck -1.97593 -5.9055 -13.2902
upperneck 26.1097 -9.01939 8.90833
head 9.54687 -4.69313 4.54513
rclavicle -2.06736e-014 -6.04305e-014
rhumerus -55.811 3.97349 -26.5534
rradius 35.3704
rwrist 17.0043
rhand 3.40618 300.251
rfingers 7.12502
rthumb 28.8486 -807.539
lclavicle -2.06736e-014 -6.04305e-014
lhumerus -15.0435 -8.25942 61.0637
lradius 43.0229
lwrist -14.2872
lhand -3.57172 -40.7738
lfingers 7.12502
lthumb 22.1652 -12.0245
rfemur -23.9939 11.2539 15.2915
rtibia 28.9028
rfoot -13.3132 -32.469
rtoes -5.9981
lfemur 25.0879 -17.8567 -34.6212
ltibia 11.9651
lfoot -18.577 7.04087
ltoes -11.5119
1542
root 8.44588 14.927 24.2224 176.598 -193.168 -176.562
lowerback 3.42666 0.683221 -7.06023
upperback -4.76897 0.215181 -3.94484
thorax -6.95786 0.362162 -0.211586
lowerneck -2.13805 -5.89152 -13.3156
upperneck 26.502 -8.95514 8.72796
head 9.70552 -4.68032 4.49389
rclavicle 2.5842e-014 -1.27222e-014
rhumerus -56.7009 6.37825 -27.5036
rradius 35.5776
rwrist 16.6159
rhand 4.17319 300.755
rfingers 7.12502
rthumb 29.581 -806.907
lclavicle 2.5842e-014 -1.27222e-014
lhumerus -16.6533 -7.42511 60.8082
lradius 43.2856
lwrist -14.6157
lhand -4.55711 -41.2912
lfingers 7.12502
lthumb 21.2189 -12.4326
rfemur -23.6749 11.2451 16.1896
rtibia 28.534
rfoot -9.9608 -33.1245
rtoes -1.41258
lfemur 25.2369 -17.7276 -33.6696
ltibia 12.2395
lfoot -17.5693 6.18845
ltoes -7.60794
1543
root 8.44021 14.9635 24.4117 176.874 -192.921 -177.135
lowerback 3.1369 0.730129 -6.25365
upperback -4.72001 0.378525 -3.66065
thorax -6.73003 0.403905 -0.36799
lowerneck -2.54994 -5.98889 -13.614
upperneck 26.5868 -8.96789 8.56139
head 9.82836 -4.71871 4.47123
rclavicle -2.98177e-015 -3.18055e-015
rhumerus -57.2018 8.26043 -28.3827
rradius 35.6578
rwrist 16.1769
rhand 5.15879 301.131
rfingers 7.12502
rthumb 30.5214 -806.36
lclavicle -2.98177e-015 -3.18055e-015
lhumerus -17.8177 -5.83968 60.9636
lradius 43.0957
lwrist -15.1045
lhand -6.00757 -42.0577
lfingers 7.12502
lthumb 19.8251 -13.0488
rfemur -23.4959 10.6908 17.0682
rtibia 28.1374
rfoot -6.72234 -32.2708
rtoes 6.26664
lfemur 24.8737 -17.3963 -32.7258
ltibia 13.2988
lfoot -16.5303 5.83497
ltoes -11.4394
